# xmcd
#
# Track frame offsets: 
#        150
#        15597
#        33575
#        49172
#        65792
#        80542
#        97502
#        117362
#        131685
#        145637
#        178697
#        189690
#        203025
#        220010
#        234362
#        254765
#        268705
#        285195
#        304252
#        318247
#
# Disc length: 4435 seconds
#
# Revision: 7
# Processed by: cddbd v1.5.1PL2 Copyright (c) Steve Scherf et al.
# Submitted via: ExactAudioCopy v0.95a5
#
DISCID=1d115114
DTITLE=Boney M. - Ultimate
DYEAR=1999
DGENRE=Disco
TTITLE0=Ma Baker' 99
TTITLE1=Rivers Of Babylon
TTITLE2=Daddy Cool
TTITLE3=Rasputin
TTITLE4=Sunny
TTITLE5=Ma Baker
TTITLE6=El Lute
TTITLE7=Painter Man
TTITLE8=Brown Girl In The Ring
TTITLE9=Kalimba De Luna
TTITLE10=Belfast
TTITLE11=No Woman No Cry
TTITLE12=Gotta Go Home
TTITLE13=I See A Boat On The River
TTITLE14=Mary's Boy Child
TTITLE15=Ribbons Of Blue
TTITLE16=Still I'm Sad
TTITLE17=Love For Sale
TTITLE18=I Shall Sing
TTITLE19=Hooray ! Hooray ! It's A Holi-Holiday
EXTD=
EXTT0=
EXTT1=
EXTT2=
EXTT3=
EXTT4=
EXTT5=
EXTT6=
EXTT7=
EXTT8=
EXTT9=
EXTT10=
EXTT11=
EXTT12=
EXTT13=
EXTT14=
EXTT15=
EXTT16=
EXTT17=
EXTT18=
EXTT19=
PLAYORDER=
